<svg width="16" height="16" viewBox="0 0 16 16" fill="none" xmlns="http://www.w3.org/2000/svg">
<path d="M3.62492 0.083374C4.09002 0.083374 4.55056 0.174982 4.98026 0.352967C5.40995 0.530953 5.80038 0.79183 6.12926 1.1207C6.45813 1.44958 6.71901 1.84001 6.89699 2.2697C7.07498 2.6994 7.16659 3.15994 7.16659 3.62504V7.16671H3.62492C2.68561 7.16671 1.78478 6.79357 1.12058 6.12938C0.456392 5.46519 0.0832535 4.56435 0.0832535 3.62504C0.0832535 2.68573 0.456392 1.7849 1.12058 1.1207C1.78478 0.456513 2.68561 0.083374 3.62492 0.083374ZM5.49992 5.50004V3.62504C5.49992 3.2542 5.38995 2.89169 5.18393 2.58335C4.9779 2.275 4.68506 2.03468 4.34245 1.89277C3.99984 1.75085 3.62284 1.71372 3.25913 1.78607C2.89541 1.85842 2.56132 2.03699 2.2991 2.29922C2.03687 2.56144 1.85829 2.89553 1.78595 3.25925C1.7136 3.62296 1.75073 3.99996 1.89265 4.34257C2.03456 4.68518 2.27488 4.97802 2.58323 5.18405C2.89157 5.39007 3.25408 5.50004 3.62492 5.50004H5.49992ZM3.62492 8.83337H7.16659V12.375C7.16659 13.0755 6.95887 13.7603 6.56971 14.3427C6.18055 14.9251 5.62741 15.3791 4.98026 15.6471C4.3331 15.9152 3.62099 15.9853 2.93398 15.8487C2.24696 15.712 1.61589 15.3747 1.12058 14.8794C0.625273 14.3841 0.287962 13.753 0.151306 13.066C0.0146497 12.379 0.0847865 11.6669 0.352847 11.0197C0.620907 10.3725 1.07485 9.81942 1.65728 9.43025C2.2397 9.04109 2.92444 8.83337 3.62492 8.83337ZM3.62492 10.5C3.25408 10.5 2.89157 10.61 2.58323 10.816C2.27488 11.0221 2.03456 11.3149 1.89265 11.6575C1.75073 12.0001 1.7136 12.3771 1.78595 12.7408C1.85829 13.1045 2.03687 13.4386 2.2991 13.7009C2.56132 13.9631 2.89541 14.1417 3.25913 14.214C3.62284 14.2864 3.99984 14.2492 4.34245 14.1073C4.68506 13.9654 4.9779 13.7251 5.18393 13.4167C5.38995 13.1084 5.49992 12.7459 5.49992 12.375V10.5H3.62492ZM12.3749 0.083374C13.3142 0.083374 14.2151 0.456513 14.8793 1.1207C15.5434 1.7849 15.9166 2.68573 15.9166 3.62504C15.9166 4.56435 15.5434 5.46519 14.8793 6.12938C14.2151 6.79357 13.3142 7.16671 12.3749 7.16671H8.83325V3.62504C8.83325 2.68573 9.20639 1.7849 9.87058 1.1207C10.5348 0.456513 11.4356 0.083374 12.3749 0.083374ZM12.3749 5.50004C12.7458 5.50004 13.1083 5.39007 13.4166 5.18405C13.725 4.97802 13.9653 4.68518 14.1072 4.34257C14.2491 3.99996 14.2862 3.62296 14.2139 3.25925C14.1415 2.89553 13.963 2.56144 13.7007 2.29922C13.4385 2.03699 13.1044 1.85842 12.7407 1.78607C12.377 1.71372 12 1.75085 11.6574 1.89277C11.3148 2.03468 11.0219 2.275 10.8159 2.58335C10.6099 2.89169 10.4999 3.2542 10.4999 3.62504V5.50004H12.3749ZM8.83325 8.83337H12.3749C13.0754 8.83337 13.7601 9.04109 14.3426 9.43025C14.925 9.81942 15.3789 10.3725 15.647 11.0197C15.9151 11.6669 15.9852 12.379 15.8485 13.066C15.7119 13.753 15.3746 14.3841 14.8793 14.8794C14.3839 15.3747 13.7529 15.712 13.0659 15.8487C12.3788 15.9853 11.6667 15.9152 11.0196 15.6471C10.3724 15.3791 9.8193 14.9251 9.43013 14.3427C9.04097 13.7603 8.83325 13.0755 8.83325 12.375V8.83337ZM10.4999 10.5V12.375C10.4999 12.7459 10.6099 13.1084 10.8159 13.4167C11.0219 13.7251 11.3148 13.9654 11.6574 14.1073C12 14.2492 12.377 14.2864 12.7407 14.214C13.1044 14.1417 13.4385 13.9631 13.7007 13.7009C13.963 13.4386 14.1415 13.1045 14.2139 12.7408C14.2862 12.3771 14.2491 12.0001 14.1072 11.6575C13.9653 11.3149 13.725 11.0221 13.4166 10.816C13.1083 10.61 12.7458 10.5 12.3749 10.5H10.4999Z" fill="#2B2E4A"/>
</svg>
