<svg width="17" height="17" viewBox="0 0 17 17" fill="none" xmlns="http://www.w3.org/2000/svg">
<path d="M2.91667 16.4533C1.30583 16.4533 0 15.1475 0 13.5367C0 11.9258 1.30583 10.62 2.91667 10.62C4.2375 10.62 5.35333 11.4983 5.7125 12.7033H10.4167V11.0367H12.0833V6.23833L10.2142 4.37H5.41667V6.03667H0.416667V1.03667H5.41667V2.70333H10.2142L12.9167 0L16.4525 3.53667L13.75 6.2375V11.0367H15.4167V16.0367H10.4167V14.37H5.7125C5.35417 15.575 4.2375 16.4533 2.91667 16.4533ZM2.91667 12.2867C2.22667 12.2867 1.66667 12.8467 1.66667 13.5367C1.66667 14.2267 2.22667 14.7867 2.91667 14.7867C3.60667 14.7867 4.16667 14.2267 4.16667 13.5367C4.16667 12.8467 3.60667 12.2867 2.91667 12.2867ZM13.75 12.7033H12.0833V14.37H13.75V12.7033ZM12.9167 2.35833L11.7383 3.53667L12.9167 4.715L14.095 3.53667L12.9167 2.35833ZM3.75 2.70333H2.08333V4.37H3.75V2.70333Z" fill="#2B2E4A"/>
</svg>
